# xmcd CD database file
#
# Track frame offsets:
#	150
#	36195
#	63744
#	89602
#	117955
#	144780
#	170681
#
# Disc length: 2797 seconds
#
# Revision: 0
# Processed by: cddbd v1.5.1PL0 Copyright (c) Steve Scherf et al.
# Submitted via: CDex 1.51
#
DISCID=600aeb07
DTITLE=Sonny Rollins - The Very Best of Sonny Rollins
DYEAR=2005
DGENRE=Jazz
TTITLE0=Decision
TTITLE1=Poor Butterfly
TTITLE2=Why Don't I
TTITLE3=How Are Things in Glocca Morra?
TTITLE4=Asiatic Raes
TTITLE5=Tune Up
TTITLE6=Sonnymoon for Two
EXTD=YEAR: 2005
EXTT0=
EXTT1=
EXTT2=
EXTT3=
EXTT4=
EXTT5=
EXTT6=
PLAYORDER=
